<mxfile host="app.diagrams.net" modified="2023-09-01T11:58:32.307Z" agent="Mozilla/5.0 (Windows NT 10.0; Win64; x64) AppleWebKit/537.36 (KHTML, like Gecko) Chrome/116.0.0.0 Safari/537.36" etag="7TpIunZQ2gFwWgsNuzU6" version="21.7.1" type="device">
  <diagram name="Page-1" id="rjtmJ0ktky7TAJgF4knv">
    <mxGraphModel dx="1071" dy="1661" grid="1" gridSize="10" guides="1" tooltips="1" connect="1" arrows="1" fold="1" page="1" pageScale="1" pageWidth="850" pageHeight="1100" math="0" shadow="0">
      <root>
        <mxCell id="0" />
        <mxCell id="1" parent="0" />
        <mxCell id="YIlCL75UZOgEqH5y1qb2-1" value="MenadzerRestorana" style="swimlane;childLayout=stackLayout;horizontal=1;startSize=50;horizontalStack=0;rounded=1;fontSize=14;fontStyle=0;strokeWidth=2;resizeParent=0;resizeLast=1;shadow=0;dashed=0;align=center;arcSize=4;whiteSpace=wrap;html=1;" vertex="1" parent="1">
          <mxGeometry x="330" y="30" width="170" height="140" as="geometry" />
        </mxCell>
        <mxCell id="YIlCL75UZOgEqH5y1qb2-2" value="- menadzerID: Long&lt;br&gt;- ime: String&lt;br&gt;- prezime: String&lt;br&gt;- username: String&lt;br&gt;- password: String" style="align=left;strokeColor=none;fillColor=none;spacingLeft=4;fontSize=12;verticalAlign=top;resizable=0;rotatable=0;part=1;html=1;" vertex="1" parent="YIlCL75UZOgEqH5y1qb2-1">
          <mxGeometry y="50" width="170" height="90" as="geometry" />
        </mxCell>
        <mxCell id="YIlCL75UZOgEqH5y1qb2-3" value="Narudzbina" style="swimlane;childLayout=stackLayout;horizontal=1;startSize=50;horizontalStack=0;rounded=1;fontSize=14;fontStyle=0;strokeWidth=2;resizeParent=0;resizeLast=1;shadow=0;dashed=0;align=center;arcSize=4;whiteSpace=wrap;html=1;" vertex="1" parent="1">
          <mxGeometry x="660" y="30" width="170" height="140" as="geometry" />
        </mxCell>
        <mxCell id="YIlCL75UZOgEqH5y1qb2-4" value="- narudzbinaID: Long&lt;br&gt;- datumVreme: DateTime&lt;br&gt;- ukupnaCena: double" style="align=left;strokeColor=none;fillColor=none;spacingLeft=4;fontSize=12;verticalAlign=top;resizable=0;rotatable=0;part=1;html=1;" vertex="1" parent="YIlCL75UZOgEqH5y1qb2-3">
          <mxGeometry y="50" width="170" height="90" as="geometry" />
        </mxCell>
        <mxCell id="YIlCL75UZOgEqH5y1qb2-5" value="StavkaNarudzbine" style="swimlane;childLayout=stackLayout;horizontal=1;startSize=50;horizontalStack=0;rounded=1;fontSize=14;fontStyle=0;strokeWidth=2;resizeParent=0;resizeLast=1;shadow=0;dashed=0;align=center;arcSize=4;whiteSpace=wrap;html=1;" vertex="1" parent="1">
          <mxGeometry x="660" y="270" width="170" height="140" as="geometry" />
        </mxCell>
        <mxCell id="YIlCL75UZOgEqH5y1qb2-6" value="- rbStavke: int&lt;br&gt;- kolicina: int&lt;br&gt;- cenaStavke: double" style="align=left;strokeColor=none;fillColor=none;spacingLeft=4;fontSize=12;verticalAlign=top;resizable=0;rotatable=0;part=1;html=1;" vertex="1" parent="YIlCL75UZOgEqH5y1qb2-5">
          <mxGeometry y="50" width="170" height="90" as="geometry" />
        </mxCell>
        <mxCell id="YIlCL75UZOgEqH5y1qb2-7" value="Jelo" style="swimlane;childLayout=stackLayout;horizontal=1;startSize=50;horizontalStack=0;rounded=1;fontSize=14;fontStyle=0;strokeWidth=2;resizeParent=0;resizeLast=1;shadow=0;dashed=0;align=center;arcSize=4;whiteSpace=wrap;html=1;" vertex="1" parent="1">
          <mxGeometry x="330" y="270" width="170" height="140" as="geometry" />
        </mxCell>
        <mxCell id="YIlCL75UZOgEqH5y1qb2-8" value="- jeloID: Long&lt;br&gt;- nazivJela: String&lt;br&gt;- cena: double&lt;br&gt;- opis: String" style="align=left;strokeColor=none;fillColor=none;spacingLeft=4;fontSize=12;verticalAlign=top;resizable=0;rotatable=0;part=1;html=1;" vertex="1" parent="YIlCL75UZOgEqH5y1qb2-7">
          <mxGeometry y="50" width="170" height="90" as="geometry" />
        </mxCell>
        <mxCell id="YIlCL75UZOgEqH5y1qb2-9" value="Kurir" style="swimlane;childLayout=stackLayout;horizontal=1;startSize=50;horizontalStack=0;rounded=1;fontSize=14;fontStyle=0;strokeWidth=2;resizeParent=0;resizeLast=1;shadow=0;dashed=0;align=center;arcSize=4;whiteSpace=wrap;html=1;" vertex="1" parent="1">
          <mxGeometry x="980" y="30" width="170" height="140" as="geometry" />
        </mxCell>
        <mxCell id="YIlCL75UZOgEqH5y1qb2-10" value="- kurirID: Long&lt;br style=&quot;border-color: var(--border-color);&quot;&gt;- imeKurira: String&lt;br style=&quot;border-color: var(--border-color);&quot;&gt;- prezimeKurira: String&lt;br style=&quot;border-color: var(--border-color);&quot;&gt;- kontakt: String" style="align=left;strokeColor=none;fillColor=none;spacingLeft=4;fontSize=12;verticalAlign=top;resizable=0;rotatable=0;part=1;html=1;" vertex="1" parent="YIlCL75UZOgEqH5y1qb2-9">
          <mxGeometry y="50" width="170" height="90" as="geometry" />
        </mxCell>
        <mxCell id="YIlCL75UZOgEqH5y1qb2-11" value="Klijent" style="swimlane;childLayout=stackLayout;horizontal=1;startSize=50;horizontalStack=0;rounded=1;fontSize=14;fontStyle=0;strokeWidth=2;resizeParent=0;resizeLast=1;shadow=0;dashed=0;align=center;arcSize=4;whiteSpace=wrap;html=1;" vertex="1" parent="1">
          <mxGeometry x="660" y="-210" width="170" height="140" as="geometry" />
        </mxCell>
        <mxCell id="YIlCL75UZOgEqH5y1qb2-12" value="- klijentID: Long&lt;br&gt;- imeKlijenta: String&lt;br&gt;- prezimeKlijenta: String&lt;br&gt;- email: String&lt;br&gt;- telefon: String" style="align=left;strokeColor=none;fillColor=none;spacingLeft=4;fontSize=12;verticalAlign=top;resizable=0;rotatable=0;part=1;html=1;" vertex="1" parent="YIlCL75UZOgEqH5y1qb2-11">
          <mxGeometry y="50" width="170" height="90" as="geometry" />
        </mxCell>
        <mxCell id="YIlCL75UZOgEqH5y1qb2-13" value="" style="endArrow=diamondThin;endFill=0;endSize=24;html=1;rounded=0;exitX=1;exitY=0.25;exitDx=0;exitDy=0;entryX=0;entryY=0.25;entryDx=0;entryDy=0;" edge="1" parent="1" source="YIlCL75UZOgEqH5y1qb2-2" target="YIlCL75UZOgEqH5y1qb2-4">
          <mxGeometry width="160" relative="1" as="geometry">
            <mxPoint x="650" y="130" as="sourcePoint" />
            <mxPoint x="810" y="130" as="targetPoint" />
          </mxGeometry>
        </mxCell>
        <mxCell id="YIlCL75UZOgEqH5y1qb2-14" value="" style="endArrow=diamondThin;endFill=0;endSize=24;html=1;rounded=0;exitX=0.5;exitY=1;exitDx=0;exitDy=0;entryX=0.5;entryY=0;entryDx=0;entryDy=0;" edge="1" parent="1" source="YIlCL75UZOgEqH5y1qb2-12" target="YIlCL75UZOgEqH5y1qb2-3">
          <mxGeometry width="160" relative="1" as="geometry">
            <mxPoint x="510" y="113" as="sourcePoint" />
            <mxPoint x="670" y="113" as="targetPoint" />
          </mxGeometry>
        </mxCell>
        <mxCell id="YIlCL75UZOgEqH5y1qb2-15" value="" style="endArrow=diamondThin;endFill=0;endSize=24;html=1;rounded=0;exitX=0;exitY=0.25;exitDx=0;exitDy=0;entryX=1;entryY=0.25;entryDx=0;entryDy=0;" edge="1" parent="1" source="YIlCL75UZOgEqH5y1qb2-10" target="YIlCL75UZOgEqH5y1qb2-4">
          <mxGeometry width="160" relative="1" as="geometry">
            <mxPoint x="755" y="-60" as="sourcePoint" />
            <mxPoint x="755" y="40" as="targetPoint" />
          </mxGeometry>
        </mxCell>
        <mxCell id="YIlCL75UZOgEqH5y1qb2-16" value="" style="endArrow=diamondThin;endFill=0;endSize=24;html=1;rounded=0;exitX=1;exitY=0.25;exitDx=0;exitDy=0;entryX=0;entryY=0.25;entryDx=0;entryDy=0;" edge="1" parent="1" source="YIlCL75UZOgEqH5y1qb2-8" target="YIlCL75UZOgEqH5y1qb2-6">
          <mxGeometry width="160" relative="1" as="geometry">
            <mxPoint x="990" y="113" as="sourcePoint" />
            <mxPoint x="840" y="113" as="targetPoint" />
          </mxGeometry>
        </mxCell>
        <mxCell id="YIlCL75UZOgEqH5y1qb2-17" value="" style="endArrow=diamondThin;endFill=1;endSize=24;html=1;rounded=0;entryX=0.5;entryY=1;entryDx=0;entryDy=0;exitX=0.5;exitY=0;exitDx=0;exitDy=0;" edge="1" parent="1" source="YIlCL75UZOgEqH5y1qb2-5" target="YIlCL75UZOgEqH5y1qb2-4">
          <mxGeometry width="160" relative="1" as="geometry">
            <mxPoint x="730" y="240" as="sourcePoint" />
            <mxPoint x="810" y="130" as="targetPoint" />
          </mxGeometry>
        </mxCell>
        <mxCell id="YIlCL75UZOgEqH5y1qb2-18" value="*" style="text;html=1;align=center;verticalAlign=middle;resizable=0;points=[];autosize=1;strokeColor=none;fillColor=none;fontSize=15;" vertex="1" parent="1">
          <mxGeometry x="620" y="60" width="30" height="30" as="geometry" />
        </mxCell>
        <mxCell id="YIlCL75UZOgEqH5y1qb2-19" value="*" style="text;html=1;align=center;verticalAlign=middle;resizable=0;points=[];autosize=1;strokeColor=none;fillColor=none;fontSize=15;" vertex="1" parent="1">
          <mxGeometry x="760" width="30" height="30" as="geometry" />
        </mxCell>
        <mxCell id="YIlCL75UZOgEqH5y1qb2-20" value="*" style="text;html=1;align=center;verticalAlign=middle;resizable=0;points=[];autosize=1;strokeColor=none;fillColor=none;fontSize=15;" vertex="1" parent="1">
          <mxGeometry x="840" y="60" width="30" height="30" as="geometry" />
        </mxCell>
        <mxCell id="YIlCL75UZOgEqH5y1qb2-21" value="*" style="text;html=1;align=center;verticalAlign=middle;resizable=0;points=[];autosize=1;strokeColor=none;fillColor=none;fontSize=15;" vertex="1" parent="1">
          <mxGeometry x="750" y="240" width="30" height="30" as="geometry" />
        </mxCell>
        <mxCell id="YIlCL75UZOgEqH5y1qb2-22" value="*" style="text;html=1;align=center;verticalAlign=middle;resizable=0;points=[];autosize=1;strokeColor=none;fillColor=none;fontSize=15;" vertex="1" parent="1">
          <mxGeometry x="620" y="300" width="30" height="30" as="geometry" />
        </mxCell>
        <mxCell id="YIlCL75UZOgEqH5y1qb2-23" value="1" style="text;html=1;align=center;verticalAlign=middle;resizable=0;points=[];autosize=1;strokeColor=none;fillColor=none;" vertex="1" parent="1">
          <mxGeometry x="510" y="300" width="30" height="30" as="geometry" />
        </mxCell>
        <mxCell id="YIlCL75UZOgEqH5y1qb2-24" value="1" style="text;html=1;align=center;verticalAlign=middle;resizable=0;points=[];autosize=1;strokeColor=none;fillColor=none;" vertex="1" parent="1">
          <mxGeometry x="500" y="60" width="30" height="30" as="geometry" />
        </mxCell>
        <mxCell id="YIlCL75UZOgEqH5y1qb2-26" value="1" style="text;html=1;align=center;verticalAlign=middle;resizable=0;points=[];autosize=1;strokeColor=none;fillColor=none;" vertex="1" parent="1">
          <mxGeometry x="750" y="-70" width="30" height="30" as="geometry" />
        </mxCell>
        <mxCell id="YIlCL75UZOgEqH5y1qb2-27" value="1" style="text;html=1;align=center;verticalAlign=middle;resizable=0;points=[];autosize=1;strokeColor=none;fillColor=none;" vertex="1" parent="1">
          <mxGeometry x="940" y="70" width="30" height="30" as="geometry" />
        </mxCell>
      </root>
    </mxGraphModel>
  </diagram>
</mxfile>
